<?xml version="1.0" encoding="utf-8"?>
<svg version="1.1" xmlns="http://www.w3.org/2000/svg" viewBox="0 0 250 250">
<line   x1="211.60254" y1= "75" x2="125"       y2= "25" stroke-width="2" stroke="#0b3d91"/>
<line   x1= "38.39746" y1= "75" x2="125"       y2= "25" stroke-width="2" stroke="#0b3d91"/>
<line   x1= "38.39746" y1= "75" x2="211.60254" y2="175" stroke-width="2" stroke="#0b3d91"/>
<line   x1="125"       y1="225" x2="211.60254" y2="175" stroke-width="2" stroke="#0b3d91"/>
<line   x1="125"       y1="225" x2= "38.39746" y2="175" stroke-width="2" stroke="#0b3d91"/>
<circle cx= "38.39746" cy= "75" r="3" fill="#0b3d91"/>
<circle cx= "38.39746" cy="175" r="3" fill="#0b3d91"/>
<circle cx="125"       cy= "25" r="3" fill="#0b3d91"/>
<circle cx="125"       cy="225" r="3" fill="#0b3d91"/>
<circle cx="211.60254" cy= "75" r="3" fill="#0b3d91"/>
<circle cx="211.60254" cy="175" r="3" fill="#0b3d91"/>

<line   x1="168.30127" y1= "100" x2="125"       y2= "75" stroke-width="2" stroke="#0b3d91"/>
<line   x1= "81.69873" y1= "100" x2="125"       y2= "75" stroke-width="2" stroke="#0b3d91"/>
<line   x1="125"       y1="175" x2="168.30127" y2="150" stroke-width="2" stroke="#0b3d91"/>
<line   x1="125"       y1="175" x2= "81.69873" y2="150" stroke-width="2" stroke="#0b3d91"/>
<circle cx= "81.69873" cy="100" r="3" fill="#0b3d91"/>
<circle cx= "81.69873" cy="150" r="3" fill="#0b3d91"/>
<circle cx="125"       cy= "75" r="3" fill="#0b3d91"/>
<circle cx="125"       cy="175" r="3" fill="#0b3d91"/>
<circle cx="168.30127" cy="100" r="3" fill="#0b3d91"/>
<circle cx="168.30127" cy="150" r="3" fill="#0b3d91"/>
</svg>
